<svg width="137" height="113" viewBox="0 0 137 113" fill="none" xmlns="http://www.w3.org/2000/svg">
<path d="M74.858 73.4916H115.284V78.3365H74.858V73.4916ZM74.858 66.7841H115.284V61.9392H74.858V66.7841ZM95.0548 50.1192H74.858V54.9621H95.0548V50.1192ZM95.0548 37.1233H74.858V41.9682H95.0548V37.1233ZM74.858 89.8226H115.284V84.9776H74.858V89.8226ZM137 21.0557V101.954H66.7888V102.068L66.1954 101.954H0V21.0557H5.85135V10.9343L61.5083 21.0557H137ZM131.898 58.6477H129.959H124.991V64.3616H129.959H131.898V58.6477ZM11.7304 26.863V87.0848L60.9174 96.0385V26.863V25.9048L34.2406 21.0515L11.7304 16.9553V21.0494V26.863ZM34.2431 96.1484L8.79337 91.5129V96.1484H34.2431ZM66.7888 96.1484H119.899V26.8671H113.137V55.5636L106.008 50.113L98.8946 55.5636V26.8671H66.7939V96.1484H66.7888ZM56.2227 34.2818L29.2266 26.8671L19.7593 24.2684L18.7057 26.8671L17.8885 28.8624L54.3494 38.8758L56.2227 34.2818ZM56.2227 47.2674L19.7618 37.2539L17.9036 41.8521L54.367 51.8655L56.2227 47.2674ZM56.2227 60.2488L19.7618 50.2333L17.9036 54.8314L54.367 64.847L56.2227 60.2488ZM56.2227 73.2365L19.7618 63.2313L17.9036 67.8253L54.367 77.8305L56.2227 73.2365ZM56.2227 84.7329L19.7618 74.7132L17.9011 79.3113L54.3645 89.3269L56.2227 84.7329Z" fill="white"/>
</svg>
