<svg width="153" height="120" viewBox="0 0 153 120" fill="none" xmlns="http://www.w3.org/2000/svg">
<path d="M145.234 16.5875H7.76566C3.48364 16.5875 0 19.3197 0 22.6782V97.3218C0 100.68 3.48364 103.413 7.76566 103.413H145.234C149.516 103.413 153 100.68 153 97.3218V22.6782C153 19.3197 149.516 16.5875 145.234 16.5875ZM28.7495 43.3379C28.7495 40.2718 31.7777 37.1002 36.8456 37.1002H39.4892C40.8434 37.1002 41.9422 36.248 41.9653 35.1901C45.7982 34.2329 51.5934 35.1794 56.8407 36.0366C59.6089 36.4886 62.2502 36.9201 64.5366 37.0562C65.6139 38.7307 67.1346 42.9333 64.7821 48.6837C59.899 46.2902 48.731 42.4867 31.0058 45.6645C30.1823 45.8123 29.5501 46.2664 29.2577 46.8381C29.2273 46.8814 29.1929 46.9312 29.1559 46.9853C28.9137 45.8146 28.7495 44.5698 28.7495 43.3379ZM31.3895 54.8659C31.3895 52.5649 32.5725 50.3357 33.24 49.2612C43.8727 47.5205 51.6281 48.6065 56.3162 49.8549C59.9558 50.8245 62.3434 52.0331 63.4692 52.6854V55.9034C63.4692 62.8404 56.2739 68.4837 47.4293 68.4837C38.5848 68.4837 31.3891 62.8404 31.3891 55.9034V54.8659H31.3895ZM47.4293 72.3714C50.528 72.3714 53.4694 71.838 56.1196 70.8886C56.6553 71.9798 57.4695 72.834 58.2368 73.4273C57.6807 73.899 57.1136 74.3907 56.5353 74.8937C53.7853 77.286 49.6295 80.9013 47.4201 80.9013C45.2107 80.9013 41.0546 77.2862 38.3049 74.8937C37.7266 74.3909 37.1598 73.8993 36.6037 73.4276C37.3726 72.833 38.1882 71.9769 38.7242 70.8832C41.3781 71.8359 44.3247 72.3714 47.4293 72.3714ZM34.6233 77.4975C38.7444 81.0822 43.0056 84.7892 47.4201 84.7892C51.8346 84.7892 56.0958 81.0822 60.2169 77.4975C61.4865 76.3931 62.7039 75.3338 63.7561 74.5477L68.6008 76.1116C68.6577 76.13 68.7155 76.1469 68.774 76.1616C70.4848 76.6002 72.1711 77.5394 73.553 78.8014C72.1661 80.6535 71.3809 82.7412 71.3809 84.8532V99.5248H18.1749V84.8535C18.1749 81.2387 21.7888 77.2585 26.0662 76.1619C26.1247 76.1469 26.1825 76.1303 26.2393 76.1119L31.0841 74.548C32.1366 75.3338 33.354 76.3931 34.6233 77.4975ZM133.652 71.9648C131.731 72.7078 128.494 73.6069 124.085 73.6069C119.553 73.6069 116.679 69.7586 116.679 68.1343C116.679 68.0216 116.664 67.9117 116.641 67.8044C122.597 64.8964 126.571 59.7172 126.571 53.8214C126.571 48.4575 122.885 43.6769 117.18 41.6431C116.443 41.3803 115.588 41.4166 114.891 41.7406L114.211 42.0573C108.238 44.8414 100.058 48.6547 86.8065 49.7738C85.5475 49.8801 84.5935 50.7136 84.5935 51.7065V53.8214C84.5935 59.7167 88.5675 64.8954 94.5219 67.8036C94.4985 67.9115 94.4833 68.0216 94.4833 68.1346C94.4833 69.7591 91.609 73.6072 87.0772 73.6072C82.6256 73.6072 79.409 72.7159 77.5029 71.9741C79.3188 69.6744 81.6412 65.1574 81.6412 57.0988V52.1451C81.6412 42.706 92.3809 35.0268 105.582 35.0268C118.782 35.0268 129.521 42.706 129.521 52.1451V57.0988C129.521 65.1465 131.838 69.6622 133.652 71.9648ZM134.828 84.8535V99.5248H76.3374V84.8535C76.3374 81.8493 78.8479 78.7851 82.5179 77.2152C83.19 77.2992 83.8913 77.3679 84.6255 77.4153C85.1774 86.1069 94.366 93.0454 105.583 93.0454C116.799 93.0454 125.988 86.1069 126.54 77.415C127.274 77.3673 127.975 77.2987 128.647 77.2147C132.318 78.7845 134.828 81.8483 134.828 84.8535ZM105.582 66.3955C96.7423 66.3955 89.5499 60.7547 89.5499 53.8212V53.4241C102.216 52.0318 110.543 48.2851 116.224 45.6407C119.534 47.2427 121.614 50.3471 121.614 53.8212C121.614 60.7547 114.423 66.3955 105.582 66.3955ZM99.2382 69.5127C101.241 70.0118 103.372 70.2832 105.583 70.2832C107.793 70.2832 109.923 70.0121 111.925 69.5132C112.785 72.6295 116.368 76.3423 121.585 77.2728C121.13 83.8865 114.127 89.1577 105.583 89.1577C97.038 89.1577 90.0354 83.8862 89.5803 77.2722C94.7962 76.341 98.378 72.6288 99.2382 69.5127ZM148.043 97.3218C148.043 98.5366 146.783 99.5248 145.234 99.5248H139.785V84.8535C139.785 81.5248 137.838 78.2582 134.653 75.8786C137.336 74.985 138.794 74.0392 138.906 73.9646C139.481 73.5833 139.848 73.0453 139.827 72.4554C139.807 71.8727 139.498 71.3549 138.912 70.9988C138.76 70.8811 137.744 70.0544 136.733 68.1323C135.704 66.1768 134.478 62.675 134.478 57.099V52.1453C134.478 40.5626 121.515 31.1394 105.582 31.1394C89.6478 31.1394 76.6844 40.5623 76.6844 52.1453V57.099C76.6844 62.6753 75.4581 66.1768 74.4294 68.1323C73.4182 70.0544 72.403 70.8809 72.25 70.9988C71.6648 71.3549 71.3552 71.8727 71.335 72.4554C71.3314 72.5655 71.3449 72.6728 71.3671 72.7788C71.0495 72.6736 70.7296 72.5759 70.4061 72.4909L64.225 70.4955C63.423 70.2365 62.5103 70.3286 61.8146 70.7298C61.4369 70.4615 60.6875 69.8076 60.513 68.7696C65.3307 65.7494 68.4257 61.1062 68.4257 55.9039V52.1427C73.5543 42.5733 69.6375 35.6143 67.8289 33.9121C67.358 33.4689 66.6604 33.2128 65.9248 33.2128C63.8618 33.2128 60.9419 32.7359 57.8509 32.2308C50.6347 31.0523 41.7462 29.6037 36.4487 33.2203C33.2925 33.2973 30.183 34.2863 27.8629 35.9658C25.2384 37.8658 23.7927 40.4838 23.7927 43.3379C23.7927 48.099 25.8197 52.8505 26.4326 54.1786V55.9034C26.4326 61.0997 29.5204 65.7385 34.3292 68.759C34.1583 69.8027 33.4049 70.4602 33.0259 70.7295C32.3299 70.3275 31.4172 70.2358 30.6152 70.495L24.4341 72.4904C18.1376 74.145 13.2181 79.559 13.2181 84.8535V99.5248H7.76566C6.21682 99.5248 4.9568 98.5366 4.9568 97.3218V22.6782C4.9568 21.4634 6.21682 20.4752 7.76566 20.4752H145.234C146.783 20.4752 148.043 21.4634 148.043 22.6782V97.3218Z" fill="white"/>
</svg>
