<svg width="91" height="88" viewBox="0 0 91 88" fill="none" xmlns="http://www.w3.org/2000/svg">
<path d="M20.1664 70.472H70.8358C70.8358 59.5051 62.9365 50.2962 52.201 47.5258C57.8244 45.0579 61.7464 39.5903 61.7464 33.2309C61.7464 24.5539 54.4688 17.526 45.5062 17.526C36.5354 17.526 29.2639 24.5598 29.2639 33.2309C29.2639 39.5962 33.1819 45.0559 38.8093 47.5258C28.0656 50.2962 20.1664 59.5051 20.1664 70.472Z" fill="white"/>
<path d="M3.06728 28.0183C4.76042 28.0183 6.13456 26.6895 6.13456 25.0522V8.56824H23.1804C24.8736 8.56824 26.2477 7.2394 26.2477 5.60208C26.2477 3.96476 24.8736 2.63593 23.1804 2.63593H5.67446C2.5438 2.63593 0 5.09586 0 8.12332V25.0522C0 26.6895 1.37005 28.0183 3.06728 28.0183Z" fill="white"/>
<path d="M85.3255 2.63593H67.8175C66.1264 2.63593 64.7502 3.96476 64.7502 5.60208C64.7502 7.2394 66.1264 8.56824 67.8175 8.56824H84.8634V25.0522C84.8634 26.6895 86.2396 28.0183 87.9307 28.0183C89.6218 28.0183 90.998 26.6895 90.998 25.0522V8.1253C91 5.09982 88.4521 2.63593 85.3255 2.63593Z" fill="white"/>
<path d="M87.9326 59.9817C86.2395 59.9817 84.8654 61.3105 84.8654 62.9478V79.4317H67.8195C66.1263 79.4317 64.7522 80.7606 64.7522 82.3979C64.7522 84.0352 66.1263 85.3641 67.8195 85.3641H85.3234C88.452 85.3641 90.9999 82.9002 90.9999 79.8747V62.9478C90.9999 61.3105 89.6258 59.9817 87.9326 59.9817Z" fill="white"/>
<path d="M23.1804 79.4317H6.13456V62.9478C6.13456 61.3105 4.76042 59.9817 3.06728 59.9817C1.37005 59.9817 0 61.3105 0 62.9478V79.8747C0 82.9002 2.5438 85.3641 5.67446 85.3641H23.1804C24.8736 85.3641 26.2477 84.0352 26.2477 82.3979C26.2477 80.7606 24.8756 79.4317 23.1804 79.4317Z" fill="white"/>
</svg>
