<svg width="48" height="50" viewBox="0 0 48 50" fill="none" xmlns="http://www.w3.org/2000/svg">
<g clip-path="url(#clip0_17_10)">
<path d="M47.021 8.67358H0.980202C0.439272 8.67358 0.000610352 9.13052 0.000610352 9.69399V40.3062C0.000610352 40.8697 0.439272 41.3266 0.980202 41.3266H47.021C47.562 41.3266 48.0006 40.8697 48.0006 40.3062V9.69399C48.0006 9.13052 47.562 8.67358 47.021 8.67358ZM43.4627 10.7144L24.0006 22.792L4.53847 10.7144H43.4627ZM46.0414 39.2858H1.95979V11.4896L16.7327 20.6572L6.24972 29.3021L7.46579 30.9023L18.5338 21.775L23.4992 24.8563C23.6537 24.9522 23.8271 25.0001 24.0006 25.0001C24.1741 25.0001 24.3475 24.9522 24.502 24.8563L29.4673 21.775L40.5353 30.9023L41.7514 29.3021L31.2685 20.6573L46.0414 11.4896V39.2858Z" fill="white"/>
</g>
<defs>
<clipPath id="clip0_17_10">
<rect width="48" height="50" fill="white" transform="translate(0.000610352)"/>
</clipPath>
</defs>
</svg>
