<svg width="53" height="50" viewBox="0 0 53 50" fill="none" xmlns="http://www.w3.org/2000/svg">
<g clip-path="url(#clip0_17_29)">
<path d="M52.1173 31.6589C48.8579 31.6589 46.2054 29.1565 46.2054 26.0816C46.2054 25.6208 45.8105 25.2483 45.3221 25.2483C44.8336 25.2483 44.4388 25.6208 44.4388 26.0816C44.4388 30.0765 47.8828 33.3255 52.1173 33.3255C52.6058 33.3255 53.0006 32.953 53.0006 32.4922C53.0006 32.0314 52.6049 31.6589 52.1173 31.6589Z" fill="white"/>
<path d="M51.4584 29.7072C51.9468 29.7072 52.3417 29.3348 52.3417 28.8739C52.3417 28.4131 51.9468 28.0406 51.4584 28.0406C50.6758 28.0406 50.0407 27.4407 50.0407 26.7032C50.0407 26.2424 49.6458 25.8699 49.1574 25.8699C48.6689 25.8699 48.274 26.2424 48.274 26.7032C48.2732 28.3598 49.7015 29.7072 51.4584 29.7072Z" fill="white"/>
<path d="M17.6685 2.49327C20.9287 2.49327 23.5804 4.99569 23.5804 8.07059C23.5804 8.5314 23.9761 8.90389 24.4637 8.90389C24.9513 8.90389 25.347 8.5314 25.347 8.07059C25.347 4.07572 21.9021 0.82666 17.6685 0.82666C17.1809 0.82666 16.7852 1.19915 16.7852 1.65997C16.7852 2.12078 17.18 2.49327 17.6685 2.49327Z" fill="white"/>
<path d="M17.4441 5.27813C17.4441 5.73895 17.8398 6.11144 18.3274 6.11144C19.1091 6.11144 19.7442 6.71142 19.7442 7.44889C19.7442 7.90971 20.1399 8.2822 20.6275 8.2822C21.1151 8.2822 21.5108 7.90971 21.5108 7.44889C21.5108 5.79228 20.0825 4.44482 18.3274 4.44482C17.8398 4.44482 17.4441 4.81731 17.4441 5.27813Z" fill="white"/>
<path d="M38.9331 31.5731C37.806 30.9665 36.6392 30.7748 35.6463 31.0348C34.9008 31.2298 34.2931 31.6748 33.8833 32.3231C32.9823 33.3397 31.864 34.528 31.5937 34.7122C29.503 36.0488 27.8397 35.8913 26.0342 34.188L15.8886 24.6175C14.0822 22.9134 13.9162 21.3443 15.3312 19.3752C15.5291 19.1169 16.7887 18.0627 17.8663 17.2119C18.5535 16.8253 19.0252 16.252 19.2319 15.5487C19.5066 14.6129 19.3043 13.5121 18.656 12.4396C18.5032 12.1929 14.8657 6.38147 11.5145 4.70902C9.81323 3.85989 7.75602 4.15154 6.39485 5.43567L4.15214 7.54893C0.606555 10.8938 -0.676886 14.6845 0.335381 18.8152C1.17982 22.2584 3.6407 25.9225 7.6509 29.7049L20.6399 41.9594C25.7295 46.761 30.5841 49.1725 35.036 49.1725C38.3051 49.1725 41.3578 47.8709 44.1261 45.2602L46.367 43.1461C47.7282 41.862 48.0382 39.9212 47.1372 38.3162C45.3636 35.1538 39.2043 31.7231 38.9331 31.5731ZM45.118 41.9678L42.8771 44.0819C37.0746 49.5542 30.0135 48.4442 21.8898 40.7812L8.89989 28.5266C5.1273 24.9675 2.82541 21.5735 2.05694 18.4402C1.17805 14.8562 2.27247 11.6805 5.40113 8.72806L7.64207 6.61396C8.1429 6.14231 8.80185 5.89565 9.47051 5.89565C9.88301 5.89565 10.2999 5.98898 10.6859 6.18231C13.5947 7.63476 17.0952 13.2271 17.1252 13.2746C17.5218 13.9304 17.6729 14.6145 17.5289 15.1045C17.4406 15.4045 17.2427 15.6328 16.9247 15.8012L16.7922 15.8878C16.0388 16.4811 14.2456 17.9161 13.8702 18.4386C13.3297 19.1919 12.971 19.9319 12.7829 20.6593C12.1549 19.4777 11.647 18.1094 11.48 16.592C11.4297 16.1353 10.9951 15.8128 10.5102 15.8487C10.0252 15.897 9.6719 16.3061 9.72225 16.7645C10.36 22.5584 15.136 26.33 15.3392 26.4875C15.3613 26.5041 15.3869 26.5108 15.4098 26.525L24.7843 35.3688C24.8241 35.4063 24.8656 35.4397 24.9054 35.4763C24.9363 35.5188 24.9566 35.5663 24.9972 35.6047C25.1642 35.7605 29.1523 39.4104 35.2427 40.007C35.2736 40.0095 35.3045 40.0112 35.3345 40.0112C35.7815 40.0112 36.1648 39.692 36.2125 39.2645C36.2629 38.8062 35.9104 38.3971 35.4246 38.3487C33.5573 38.1662 31.9029 37.6496 30.5241 37.0504C31.1998 36.8588 31.887 36.5405 32.5839 36.0955C33.1386 35.7405 34.6597 34.0497 35.2877 33.3389L35.3796 33.2131C35.558 32.9139 35.8 32.7273 36.118 32.6431C36.6374 32.5106 37.3626 32.6498 38.0489 33.0181C38.1081 33.0514 44.036 36.3538 45.5756 39.0979C46.1108 40.0503 45.9271 41.2045 45.118 41.9678Z" fill="white"/>
</g>
<defs>
<clipPath id="clip0_17_29">
<rect width="53" height="50" fill="white" transform="translate(0.000610352)"/>
</clipPath>
</defs>
</svg>
