<svg width="91" height="88" viewBox="0 0 91 88" fill="none" xmlns="http://www.w3.org/2000/svg">
<path d="M59.5372 22C45.3913 22 33.8829 33.129 33.8829 46.8085C33.8829 60.488 45.3913 71.617 59.5372 71.617C73.683 71.617 85.1914 60.488 85.1914 46.8085C85.1914 33.129 73.683 22 59.5372 22ZM59.5372 68.8085C46.9927 68.8085 36.7872 58.9394 36.7872 46.8085C36.7872 34.6776 46.9927 24.8085 59.5372 24.8085C72.0816 24.8085 82.2872 34.6776 82.2872 46.8085C82.2872 58.9394 72.0816 68.8085 59.5372 68.8085Z" fill="white"/>
<path d="M71.1542 46.8085C71.1542 40.6141 65.9428 35.5745 59.5372 35.5745C53.1316 35.5745 47.9202 40.6141 47.9202 46.8085C47.9202 53.003 53.1316 58.0425 59.5372 58.0425C65.9428 58.0425 71.1542 53.003 71.1542 46.8085ZM50.8244 46.8085C50.8244 42.1627 54.733 38.383 59.5372 38.383C64.3414 38.383 68.25 42.1627 68.25 46.8085C68.25 51.4543 64.3414 55.234 59.5372 55.234C54.733 55.234 50.8244 51.4543 50.8244 46.8085Z" fill="white"/>
<path d="M83.7394 16.383H31.584V12.1702C31.584 11.3947 30.9338 10.766 30.1318 10.766H13.0691C12.2672 10.766 11.617 11.3947 11.617 12.1702V16.383H7.26064C3.25703 16.383 0 19.5326 0 23.4043V70.2128C0 74.0844 3.25703 77.234 7.26064 77.234H83.7394C87.743 77.234 91 74.0844 91 70.2128V23.4043C91 19.5326 87.743 16.383 83.7394 16.383ZM14.5213 13.5745H28.6797V16.383H14.5213V13.5745ZM88.0957 70.2128C88.0957 72.5358 86.1416 74.4255 83.7394 74.4255H7.26064C4.85843 74.4255 2.90426 72.5358 2.90426 70.2128V23.4043C2.90426 21.0812 4.85843 19.1915 7.26064 19.1915H83.7394C86.1416 19.1915 88.0957 21.0812 88.0957 23.4043V70.2128Z" fill="white"/>
<path d="M59.5373 27.617C55.329 27.617 51.3049 28.8808 47.9001 31.272C47.2511 31.7277 47.1073 32.6059 47.5785 33.2335C48.0496 33.8609 48.9577 34.0004 49.6068 33.5445C52.5123 31.504 55.9463 30.4255 59.5375 30.4255C68.8791 30.4255 76.479 37.7748 76.479 46.8085C76.479 55.8422 68.8791 63.1915 59.5375 63.1915C50.1958 63.1915 42.5958 55.8422 42.5958 46.8085C42.5958 43.3359 43.711 40.0151 45.8212 37.2053C46.2925 36.5777 46.1485 35.6995 45.4995 35.2438C44.8503 34.7881 43.9422 34.9274 43.4711 35.555C40.9984 38.8475 39.6915 42.739 39.6915 46.8085C39.6915 57.3908 48.5942 66 59.5373 66C70.4803 66 79.383 57.3908 79.383 46.8085C79.383 36.2262 70.4803 27.617 59.5373 27.617Z" fill="white"/>
<path d="M26.6223 22H11.1329C8.19693 22 5.80847 24.3097 5.80847 27.1489C5.80847 29.9882 8.19693 32.2979 11.1329 32.2979H26.6223C29.5583 32.2979 31.9468 29.9882 31.9468 27.1489C31.9468 24.3097 29.5583 22 26.6223 22ZM26.6223 29.4894H11.1329C9.79834 29.4894 8.71273 28.4395 8.71273 27.1489C8.71273 25.8583 9.79834 24.8085 11.1329 24.8085H26.6223C27.9569 24.8085 29.0425 25.8583 29.0425 27.1489C29.0425 28.4395 27.9569 29.4894 26.6223 29.4894Z" fill="white"/>
</svg>
