<svg width="97" height="85" viewBox="0 0 97 85" fill="none" xmlns="http://www.w3.org/2000/svg">
<path d="M94.653 40.3854H80.8879V20.0408H80.8823C80.882 19.5057 80.6492 18.9798 80.2002 18.5864L63.9846 4.37887C63.5359 3.98563 62.9357 3.78181 62.3253 3.78161V3.77667H18.457C17.1607 3.77667 16.11 4.69744 16.11 5.83334V40.3854H2.34703C1.05076 40.3854 0 41.3062 0 42.4421V71.421C0 76.826 5.01794 81.2231 11.1859 81.2231H85.8141C91.9821 81.2231 97 76.826 97 71.421V42.4421C97 41.3062 95.9492 40.3854 94.653 40.3854ZM64.6723 10.7982L72.874 17.9842H64.6723V10.7982ZM20.804 7.89002H59.9782V20.0408C59.9782 21.1767 61.0292 22.0975 62.3253 22.0975H76.1938V40.3854H20.804V7.89002ZM92.3059 44.4988V47.3781H4.69405V44.4988H92.3059ZM85.8141 77.11H11.1859C7.60624 77.11 4.69405 74.5581 4.69405 71.4212V51.4917H92.3059V71.4212C92.3059 74.5581 89.3938 77.11 85.8141 77.11Z" fill="white"/>
<path d="M82.8514 60.9361H14.1485C12.8523 60.9361 11.8015 61.8569 11.8015 62.9928V70.4128C11.8015 71.5487 12.8523 72.4695 14.1485 72.4695H82.8514C84.1474 72.4695 85.1984 71.5487 85.1984 70.4128V62.9928C85.1984 61.8569 84.1474 60.9361 82.8514 60.9361ZM80.5044 68.3562H16.4956V65.0495H80.5044V68.3562Z" fill="white"/>
<path d="M13.612 55.1935C13.612 54.6526 13.3632 54.122 12.9243 53.7394C12.4878 53.3569 11.8823 53.1368 11.265 53.1368C10.6477 53.1368 10.0422 53.3569 9.60565 53.7394C9.1691 54.122 8.91797 54.6526 8.91797 55.1935C8.91797 55.7344 9.1691 56.265 9.60565 56.6476C10.0422 57.0301 10.6477 57.2502 11.265 57.2502C11.8823 57.2502 12.4878 57.0301 12.9243 56.6476C13.3635 56.265 13.612 55.7346 13.612 55.1935Z" fill="white"/>
</svg>
