<svg width="109" height="107" viewBox="0 0 109 107" fill="none" xmlns="http://www.w3.org/2000/svg">
<path d="M108.033 41.7251C107.44 41.4369 106.733 41.5035 106.207 41.8969L84.3545 58.2405C84.0424 57.7841 83.5116 57.4838 82.9096 57.4838H77.6914V50.0849C77.6914 45.3773 73.7902 41.5476 68.9946 41.5476H68.7487C74.1408 37.9631 77.6914 31.9022 77.6914 25.0422C77.6914 14.058 68.5882 5.12201 57.3988 5.12201C49.1323 5.12201 42.0055 10.0001 38.8456 16.9773C35.6861 10.0001 28.5591 5.12222 20.2926 5.12222C9.10322 5.12222 0 14.0582 0 25.0424C0 31.9024 3.5506 37.9633 8.9427 41.5478H8.69681C3.90123 41.5476 0 45.3775 0 50.0851V93.3406C0 98.0481 3.90123 101.878 8.69681 101.878H68.9948C73.7904 101.878 77.6916 98.0481 77.6916 93.3406V85.9417H82.9098C83.8703 85.9417 84.6491 85.1774 84.6491 84.2342V62.3138L105.522 46.7029V96.7228L90.9215 85.8031C90.1577 85.2319 89.0662 85.3759 88.4839 86.1266C87.9019 86.8764 88.049 87.9479 88.8132 88.5195L106.207 101.529C106.516 101.76 106.887 101.878 107.261 101.878C107.524 101.878 107.788 101.819 108.033 101.7C108.625 101.412 109 100.819 109 100.17V43.2553C109 42.6061 108.625 42.0133 108.033 41.7251ZM57.399 8.53703C66.6702 8.53703 74.213 15.9412 74.213 25.0424C74.213 34.1435 66.6704 41.5478 57.399 41.5478C48.1279 41.5478 40.5851 34.1437 40.5851 25.0424C40.5851 15.9412 48.1279 8.53703 57.399 8.53703ZM46.0492 41.5476H31.6426C34.7794 39.4626 37.2921 36.5385 38.846 33.1072C40.3997 36.5385 42.9122 39.4626 46.0492 41.5476ZM3.47864 25.0424C3.47864 15.9414 11.0212 8.53703 20.2926 8.53703C29.5638 8.53703 37.1065 15.9412 37.1065 25.0424C37.1065 34.1435 29.564 41.5478 20.2926 41.5478C11.0212 41.5478 3.47864 34.1435 3.47864 25.0424ZM74.213 93.3403C74.213 96.1648 71.8722 98.4628 68.9948 98.4628H8.69681C5.81938 98.4628 3.47864 96.1648 3.47864 93.3403V50.0851C3.47864 47.2607 5.81938 44.9627 8.69681 44.9627H68.9948C71.8722 44.9627 74.213 47.2607 74.213 50.0851V93.3403ZM81.1705 82.5266H77.6918V60.8988H81.1705V82.5266Z" fill="white"/>
<path d="M38.8457 50.6541H11.0159C10.0554 50.6541 9.27661 51.4184 9.27661 52.3615C9.27661 53.3047 10.0554 54.069 11.0159 54.069H38.8457C39.8063 54.069 40.585 53.3047 40.585 52.3615C40.585 51.4184 39.8063 50.6541 38.8457 50.6541Z" fill="white"/>
<path d="M62.0372 57.484H11.0159C10.0554 57.484 9.27661 58.2482 9.27661 59.1914V84.234C9.27661 85.1772 10.0554 85.9414 11.0159 85.9414H17.9734C18.934 85.9414 19.7127 85.1772 19.7127 84.234C19.7127 83.2909 18.934 82.5266 17.9734 82.5266H12.7553V60.8988H60.2979V82.5264H24.9307C23.9701 82.5264 23.1914 83.2907 23.1914 84.2338C23.1914 85.177 23.9701 85.9412 24.9307 85.9412H62.0372C62.9977 85.9412 63.7765 85.177 63.7765 84.2338V59.1912C63.7765 58.2482 62.9977 57.484 62.0372 57.484Z" fill="white"/>
<path d="M57.399 16.5052C52.6034 16.5052 48.7021 20.3349 48.7021 25.0424C48.7021 25.7875 48.802 26.531 48.9989 27.252C49.248 28.1632 50.203 28.7036 51.1295 28.4589C52.0575 28.2146 52.6078 27.278 52.359 26.3672C52.241 25.9348 52.1808 25.489 52.1808 25.0424C52.1808 22.218 54.5215 19.92 57.399 19.92C60.2764 19.92 62.6171 22.218 62.6171 25.0424C62.6171 27.8669 60.2764 30.1649 57.399 30.1649C56.9447 30.1649 56.4903 30.1059 56.049 29.9897C55.1215 29.7452 54.1673 30.2861 53.9186 31.197C53.6697 32.108 54.2205 33.0441 55.1483 33.2884C55.8832 33.4819 56.6406 33.5797 57.399 33.5797C62.1945 33.5797 66.0958 29.75 66.0958 25.0424C66.0958 20.3349 62.1945 16.5052 57.399 16.5052Z" fill="white"/>
<path d="M20.2925 16.5052C15.4971 16.5052 11.5957 20.3349 11.5957 25.0424C11.5957 25.7875 11.6958 26.531 11.8925 27.252C12.1416 28.1632 13.0964 28.7036 14.0231 28.4589C14.9511 28.2146 15.5014 27.278 15.2525 26.3672C15.1346 25.9348 15.0743 25.489 15.0743 25.0424C15.0743 22.218 17.4151 19.92 20.2925 19.92C23.17 19.92 25.5107 22.218 25.5107 25.0424C25.5107 27.8669 23.17 30.1649 20.2925 30.1649C19.8382 30.1649 19.3839 30.1059 18.9426 29.9897C18.0146 29.7452 17.061 30.2861 16.8122 31.197C16.5633 32.108 17.1141 33.0441 18.0418 33.2884C18.7767 33.4819 19.5342 33.5797 20.2925 33.5797C25.0881 33.5797 28.9893 29.75 28.9893 25.0424C28.9893 20.3349 25.0881 16.5052 20.2925 16.5052Z" fill="white"/>
</svg>
